# xmcd
# Track frame offsets:
# 150
# 21250
# 36395
# 49368
# 85463
# 111865
# 137701
# 153976
# 174106
# 198319
# 212525
#
# Disc length: 3358 seconds
# Revision: 0
# Processed by: cddbd v1.5.1PL0 Copyright (c) Steve Scherf et al.
# Submitted via: VisiTrax 2.9.10.220 - For more info visit www.synapsa.com
#
DISCID=940d1c0b
DTITLE=Crosby, Stills and Nash - Daily Mail - CSN 2005
DYEAR=2005
DGENRE=Country Rock
TTITLE0=Love The One You're With
TTITLE1=Marrakesh Express
TTITLE2=Wasted On The Way
TTITLE3=Wooden Ships
TTITLE4=Guinevere
TTITLE5=For What It's Worth
TTITLE6=Lay Me Down
TTITLE7=Drivin' Thunder
TTITLE8=Long Time Gone
TTITLE9=Teach Your Children
TTITLE10=Suite: Judy Blue Eyes
EXTD=www.songofthesalesman.co.uk free with dail mail 18/6/2005
EXTT0=
EXTT1=
EXTT2=
EXTT3=
EXTT4=
EXTT5=
EXTT6=
EXTT7=
EXTT8=
EXTT9=
EXTT10=
PLAYORDER=
